<svg xmlns="http://www.w3.org/2000/svg" viewBox="0 0 419.500000 137.820211" fill="currentColor">
<g transform="translate(0.000000,138.109674) scale(0.100000,-0.100000)"
fill="currentColor" stroke="none">
<path d="M2480 1053 c0 -181 5 -346 10 -367 5 -22 14 -96 20 -165 9 -98 9
-139 0 -186 -22 -107 -23 -125 -6 -170 21 -54 91 -120 142 -134 22 -6 69 -11
107 -11 l67 0 0 85 c0 79 -1 85 -20 85 -38 0 -89 28 -103 57 -12 23 -15 126
-20 561 -6 625 5 572 -119 572 l-78 0 0 -327z"/>
<path d="M864 1236 c-29 -29 -34 -41 -34 -81 0 -40 5 -52 34 -81 30 -30 41
-34 84 -34 38 0 55 5 76 25 56 51 58 122 5 175 -26 25 -38 30 -81 30 -44 0
-54 -4 -84 -34z"/>
<path d="M345 927 c-59 -20 -86 -35 -127 -75 l-37 -35 -7 52 -7 51 -83 0 -84
0 0 -429 c0 -377 2 -431 16 -445 12 -12 36 -16 100 -16 l84 0 0 283 c0 276 1
283 24 333 28 61 75 99 136 113 86 19 156 -12 200 -90 25 -44 25 -46 28 -329
2 -177 8 -290 14 -297 7 -9 39 -13 95 -13 l84 0 -3 333 c-4 378 -6 390 -84
476 -58 65 -125 93 -229 98 -48 2 -96 -2 -120 -10z"/>
<path d="M1926 921 c-77 -26 -158 -82 -200 -140 -54 -74 -89 -154 -156 -356
l-64 -190 -108 330 c-66 202 -114 335 -125 342 -21 16 -193 18 -193 3 0 -24
273 -789 295 -826 62 -106 211 -96 271 17 7 15 43 114 79 220 77 226 114 306
163 361 55 61 102 81 182 76 92 -5 138 -37 183 -127 29 -60 32 -74 32 -161 0
-84 -3 -102 -28 -152 -73 -149 -233 -182 -344 -72 -40 40 -53 69 -80 184 -8
34 -10 30 -56 -98 -26 -74 -47 -142 -47 -151 0 -27 93 -109 155 -137 123 -57
238 -55 362 6 271 133 323 571 93 783 -78 73 -146 99 -265 104 -69 2 -104 -1
-149 -16z"/>
<path d="M3618 917 c-190 -65 -310 -223 -418 -550 -23 -71 -43 -127 -45 -125
-2 2 -49 147 -105 323 -68 214 -109 326 -122 338 -16 13 -39 17 -109 17 -49 0
-89 -4 -89 -8 0 -4 63 -187 139 -405 88 -252 149 -410 166 -432 49 -65 126
-83 195 -46 45 23 71 76 145 291 31 91 73 196 93 234 90 173 227 252 366 212
81 -24 131 -78 160 -173 l7 -23 -237 -2 -238 -3 -18 -32 c-11 -17 -41 -94 -69
-170 -57 -158 -58 -153 26 -232 54 -51 166 -102 272 -123 71 -14 196 3 272 37
69 32 131 74 131 89 0 7 -13 33 -30 59 -35 56 -50 58 -129 20 -75 -36 -218
-45 -287 -18 -63 24 -113 70 -140 130 -43 92 -68 84 309 87 l332 3 -1 81 c-2
156 -71 301 -180 372 -109 73 -268 92 -396 49z"/>
<path d="M850 494 c0 -274 4 -432 10 -445 9 -16 22 -19 95 -19 l85 0 0 445 0
445 -95 0 -95 0 0 -426z"/>
</g>
</svg>